<?xml version="1.0" encoding="UTF-8" standalone="no"?>
<svg width="1000px" height="600px" viewBox="0 0 1000 600" version="1.1" xmlns="http://www.w3.org/2000/svg" xmlns:xlink="http://www.w3.org/1999/xlink">
    <!-- Generator: Sketch 3.8.3 (29802) - http://www.bohemiancoding.com/sketch -->
    <title>wordmark-symbol _horizontal _c _transparent</title>
    <desc>Created with Sketch.</desc>
    <defs></defs>
    <g id="Logo" stroke="none" stroke-width="1" fill="none" fill-rule="evenodd">
        <g id="wordmark-symbol-_horizontal-_c-_transparent">
            <g id="wordmark" transform="translate(403.000000, 171.000000)" fill="#FFFFFF">
                <path d="M46.6728972,220.96558 C28.1682243,220.96558 13.1588785,217.786957 0.308411215,211.634783 L4.21495327,182.104348 C17.7850467,188.769203 33.1028037,191.947826 45.953271,191.947826 C55.3084112,191.947826 61.4766355,188.769203 61.4766355,183.12971 C61.4766355,166.928986 2.98130841,170.825362 2.98130841,128.477899 C2.98130841,101.408333 27.8598131,87.1557971 59.0093458,87.1557971 C74.5327103,87.1557971 90.5700935,91.3597826 100.953271,95.051087 L96.7383178,124.068841 C85.8411215,119.864855 71.0373832,115.968478 58.7009346,115.968478 C51.0934579,115.968478 44.9252336,118.63442 44.9252336,123.556159 C44.9252336,139.551812 104.654206,136.373188 104.654206,177.69529 C104.654206,205.175 80.1869159,220.96558 46.6728972,220.96558 L46.6728972,220.96558 Z" id="Shape"></path>
                <path d="M208.383178,218.197101 L208.383178,145.088768 C208.383178,128.375362 200.981308,120.480072 186.897196,120.480072 C180.009346,120.480072 172.813084,122.428261 167.878505,125.401812 L167.878505,218.197101 L124.495327,218.197101 L124.495327,91.4623188 L166.953271,87.976087 L165.925234,108.688406 L167.364486,108.688406 C176.514019,96.384058 192.037383,87.0532609 210.542056,87.0532609 C232.747664,87.0532609 251.971963,100.793116 251.971963,133.297101 L251.971963,218.197101 L208.383178,218.197101 L208.383178,218.197101 Z" id="Shape"></path>
                <path d="M495.102804,218.197101 L460.35514,157.905797 L456.859813,157.905797 L456.859813,218.197101 L413.476636,218.197101 L413.476636,68.084058 L456.859813,0.410144928 L456.859813,140.474638 C465.495327,129.913406 494.588785,89.8217391 494.588785,89.8217391 L548.149533,89.8217391 L497.364486,143.448188 L549.897196,218.299638 L495.102804,218.299638 L495.102804,218.197101 Z" id="Shape"></path>
                <path d="M357.242991,90.2318841 L339.457944,148.062319 C335.962617,158.931159 332.570093,178.925725 332.570093,178.925725 C332.570093,178.925725 329.897196,158.213406 326.196262,147.344565 L307.17757,90.2318841 L258.551402,90.2318841 L311.392523,218.197101 C304.196262,235.218116 293.093458,249.573188 278.28972,249.573188 C275.616822,249.573188 272.943925,249.470652 270.373832,249.163043 L253.102804,275.822464 L253.102804,275.822464 C258.551402,278.898551 268.934579,282.077174 281.271028,282.077174 C313.345794,282.077174 334.831776,256.135507 349.841121,217.786957 L400.214953,90.2318841 L357.242991,90.2318841 L357.242991,90.2318841 Z" id="Shape"></path>
            </g>
            <g id="symbol" transform="translate(47.000000, 58.000000)">
                <path d="M218.42985,29.9712524 L221.27844,35.2496043 C225.489547,43.026372 262.344252,111.936954 262.344252,136.834129 L262.342246,136.834129 L262.342246,138.293762 L245.634244,183.15316 C248.350699,207.605495 253.753514,260.736149 249.67482,271.116426 C247.156984,277.536827 237.559112,290.745019 229.349561,301.441054 L240.466159,403.573685 L225.122404,414.67087 L218.175549,350.745413 L216.115436,352.235365 L215.582508,347.331324 C214.527675,352.451605 213.166943,357.599332 211.403707,362.386208 C207.888767,371.938366 201.677435,379.176956 193.732708,383.464505 C193.26726,406.363869 171.954928,418.718126 151.87443,418.718126 C131.627414,418.718126 110.136527,406.373798 109.663053,383.482378 C101.702277,379.186886 95.4829198,371.948296 91.9639676,362.386208 C90.2548952,357.739248 88.9192544,352.759164 87.8732792,347.791339 L87.3328664,352.775785 L85.3456765,351.387956 L78.4178071,415.286498 L63.0740518,404.570605 L74.2187381,301.750853 C65.9449872,291.007158 56.1625407,277.602361 53.6206294,271.110468 C49.541935,260.728205 54.7340949,207.605495 57.454562,183.149189 L40.4436178,138.295748 L40.4436178,136.834129 C40.4436178,111.936954 77.5932407,43.026372 81.8103659,35.2496043 L82.7210572,33.5970127 C86.4722633,26.2682759 89.3551803,20.9283139 90.3109765,19.1657375 L100.872613,0 C100.872613,0 110.518449,66.6076496 110.511404,66.6669215 L115.71209,102.650184 L120.561216,142.390863 C126.470274,140.522374 134.785151,138.355427 143.705486,137.472306 C146.111106,131.613128 148.721383,127.710916 151.590303,127.710916 C157.082979,127.710916 162.557389,132.950475 167.492175,138.593227 C173.038526,139.594747 178.089218,140.944425 182.117427,142.187703 L187.581231,102.651927 L202.397813,0 L212.741066,19.1657375 C213.52995,20.6225916 215.623858,24.5234502 218.42985,29.9712524 Z" id="Shape-Copy-45" fill="#FFFFFF"></path>
                <path d="M303.031847,375.764186 L151.514851,482.770987 L0,375.764186 L0,126.235677 C0,126.235677 56.0241365,105.416667 151.720775,105.416667 C247.417413,105.416667 303.031847,126.235677 303.031847,126.235677 L303.031847,375.764186 L303.031847,375.764186 L303.031847,375.764186 Z" id="Shape-Copy-44" fill="#FFFFFF"></path>
                <polygon id="Shape-Copy-42" fill="#3B3B63" points="216.707465 308.456833 151.397809 308.456833 151.397809 199.431083 85.1296815 305.269417 74.8265987 413.950167 150.377376 467.751 151.397809 468.479333 228.662217 413.563"></polygon>
                <g id="Shape-+-Shape-Copy" transform="translate(9.681529, 116.916667)">
                    <path d="M140.596716,350.444318 L0,251.068418 L0,19.3343589 C0,19.3343589 51.9870466,-2.72534923e-14 140.787801,-2.72534923e-14 C229.588556,-2.72534923e-14 281.195423,19.3343589 281.195423,19.3343589 L281.195423,251.068418 L140.596716,350.444318 Z" id="Shape" fill="#DBDBDB"></path>
                    <path d="M142.633379,2.84217094e-14 C142.567693,2.84217094e-14 142.505989,0.00195949721 142.440303,0.00195949721 L142.440303,350.43844 L142.442294,350.43844 L283.041,251.062539 L283.041,19.3343589 C283.041,19.3343589 231.434133,2.84217094e-14 142.633379,2.84217094e-14 L142.633379,2.84217094e-14 L142.633379,2.84217094e-14 Z" id="Shape" fill="#C6C6C6"></path>
                </g>
                <polygon id="Shape-Copy-41" fill="#3B3B63" points="228.276892 413.33875 216.345376 308.456833 151.031847 308.456833 151.031847 468.235917"></polygon>
                <polygon id="Shape-Copy-40" fill="#53537A" points="74.8265987 413.950167 151.397809 468.479333 151.397809 199.431083 85.1296815 305.269417"></polygon>
                <path d="M184.351796,382.969167 C184.351796,400.951333 167.407185,409.86575 151.862522,409.86575 C136.31786,409.86575 119.030522,400.951333 119.030522,382.969167" id="Shape-Copy-39" fill="#BC9375"></path>
                <path d="M174.825172,372.77825 C174.825172,393.867333 163.369987,399.5215 151.690191,399.5215 C140.012331,399.5215 128.553274,393.867333 128.553274,372.77825" id="Shape-Copy-38" fill="#083251"></path>
                <path d="M151.690191,392.268833 C139.210701,392.268833 133.142318,383.193417 133.142318,364.536583 L139.092586,364.536583 C139.092586,386.378917 147.598777,386.378917 151.690191,386.378917 C155.779669,386.378917 164.287796,386.378917 164.287796,364.536583 L170.236127,364.536583 C170.236127,383.193417 164.167745,392.268833 151.690191,392.268833 L151.690191,392.268833 Z" id="Shape-Copy-37" fill="#FFFFFF"></path>
                <g id="Group-Copy-11" transform="translate(52.280255, 53.666667)">
                    <path d="M198.469401,95.92725 C198.469401,73.1764167 159.679389,1.59275 159.679389,1.59275 L146.557045,92.3756667 L134.780433,111.542333 L99.4835159,112.9645 L99.3441019,113.24625 L99.3441019,112.9645 L64.0413758,111.542333 L52.2686369,92.3756667 L39.146293,1.59275 C39.146293,1.59275 0.352407643,73.1764167 0.352407643,95.92725 L16.7412994,139.642583 C16.7412994,139.642583 8.47133758,213.072 12.2471338,222.686 C16.0113121,232.301917 42.1591847,264.457833 42.1591847,264.457833 C42.1591847,264.457833 42.0817325,291.4905 49.2402548,310.9255 C54.3482293,324.804083 65.6020382,330.433333 76.3775796,330.433333 C92.8826497,330.433333 99.3402293,315.423917 99.3402293,315.423917 C99.3402293,315.423917 105.952713,330.433333 122.457783,330.433333 C133.231389,330.433333 144.47358,324.813667 149.593172,310.9255 C156.743949,291.498167 156.672306,264.457833 156.672306,264.457833 C156.672306,264.457833 182.814369,232.301917 186.586293,222.686 C190.360153,213.070083 182.088255,139.642583 182.088255,139.642583 L198.469401,95.92725 L198.469401,95.92725 Z" id="Shape" fill="#C49A7E"></path>
                    <path d="M99.4099363,113.110167 L99.3421656,113.24625 L99.3421656,112.966417 L64.0394395,111.54425 L52.2667006,92.3775833 L39.1404841,1.59466667 C39.1404841,1.59466667 0.350471338,73.1783333 0.350471338,95.9291667 L16.7354904,139.6445 C16.7354904,139.6445 8.46746497,213.073917 12.2374522,222.687917 C16.0093758,232.303833 42.1475669,264.45975 42.1475669,264.45975 C42.1475669,264.45975 42.0797962,291.492417 49.2305732,310.927417 C54.346293,324.806 65.6001019,330.43525 76.3659618,330.43525 C92.8807134,330.43525 99.338293,315.425833 99.338293,315.425833 C99.338293,315.425833 99.3673376,315.4795 99.4118726,315.57725 L99.4118726,113.110167 L99.4099363,113.110167 L99.4099363,113.110167 Z" id="Shape" fill="#D8B7A0"></path>
                </g>
                <path d="M234.720917,197.612167 C231.713834,191.375333 235.989197,176.618917 235.989197,176.618917 C211.492994,151.731 205.366522,99.8334167 205.366522,99.8334167 C200.792968,116.186417 190.851975,164.402083 190.851975,164.402083 C190.851975,164.402083 172.569376,157.6535 151.771516,157.620917 L151.771516,157.620917 L151.697936,157.620917 L151.616611,157.620917 L151.616611,157.620917 C150.474191,157.626667 149.349197,157.655417 148.224204,157.691833 L148.224204,361.144083 L149.777121,363.398083 L149.777121,362.2845 L150.737529,362.2845 L150.737529,363.398083 L150.74721,362.2845 L152.642854,362.2845 L152.642854,363.398083 L152.642854,362.2845 L153.612943,362.2845 L153.612943,363.398083 L170.545936,338.889667 L174.226854,270.069833 L195.30935,293.9055 L222.467975,301.769583 C222.467975,301.769583 232.629707,294.58975 232.629707,294.616583 C236.943796,288.628917 238.374726,283.528667 239.418395,280.88175 C243.190318,271.252417 234.720917,197.612167 234.720917,197.612167 L234.720917,197.612167 Z" id="Shape-Copy-36" fill="#3B3B63"></path>
                <path d="M151.879949,157.619 C151.852841,157.619 151.831541,157.617083 151.808306,157.617083 L151.808306,157.619 C131.002701,157.6535 112.718166,164.39825 112.718166,164.39825 C112.718166,164.39825 102.773299,116.1845 98.2036178,99.8295833 C98.2036178,99.8295833 92.0810191,151.727167 67.5809427,176.615083 C67.5809427,176.615083 71.8563057,191.373417 68.8492229,197.608333 C68.8492229,197.608333 60.3798217,271.252417 64.1517452,280.866417 C65.1934777,283.51525 66.6360255,288.613583 70.9443057,294.60125 C70.9443057,294.574417 81.1118471,301.756167 81.1118471,301.756167 L108.264662,293.890167 L129.343287,270.058333 L133.033885,338.878167 L149.957197,363.386583 L149.957197,362.273 L150.927287,362.273 L150.927287,363.386583 L150.927287,362.273 L151.878013,362.273 L151.878013,157.619 L151.879949,157.619 L151.879949,157.619 Z" id="Shape-Copy-35" fill="#53537A"></path>
                <g id="Group-Copy-10" transform="translate(91.006369, 243.416667)">
                    <g id="Group" transform="translate(77.452229, 0.000000)">
                        <path d="M32.5125096,0.25875 L32.5125096,0.25875 L8.7153121,0.25875 L8.7153121,0.25875 L0.784203822,0.25875 L0.784203822,0.590333333 C0.784203822,11.5613333 10.3650446,20.4489167 21.6033631,20.4489167 C32.8455541,20.4489167 42.4263949,11.5594167 42.4263949,0.590333333 L42.4263949,0.25875 L32.5125096,0.25875 L32.5125096,0.25875 Z" id="Shape" fill="#333152"></path>
                        <path d="M8.7153121,0.25875 L8.7153121,0.590333333 C8.7153121,7.11658333 14.0207898,12.4046667 20.6158471,12.4046667 C27.2109045,12.4046667 32.5144459,7.11658333 32.5144459,0.590333333 L32.5144459,0.25875 L8.7153121,0.25875 L8.7153121,0.25875 Z" id="Shape" fill="#FFFFFF"></path>
                        <path d="M24.2870828,0.25875 L18.7105223,0.25875 C18.6563057,0.25875 18.6098344,0.285583333 18.5614268,0.295166667 C19.2526879,0.438916667 19.6360764,1.99141667 19.4869809,3.0245 C19.2643057,4.60383333 17.9050191,5.70016667 16.3482293,5.727 C16.8013248,7.79125 18.5014013,9.45108333 20.7591338,9.76541667 C23.6442293,10.1698333 26.3105223,8.211 26.7190828,5.35708333 C27.0134013,3.25641667 25.9929682,0.25875 24.2870828,0.25875 L24.2870828,0.25875 Z" id="Shape" fill="#333152"></path>
                    </g>
                    <g id="Group">
                        <path d="M33.3741656,0.25875 L33.3741656,0.25875 L9.58084076,0.25875 L9.58084076,0.25875 L1.64779618,0.25875 L1.64779618,0.590333333 C1.64779618,11.5613333 11.2305732,20.4489167 22.4669554,20.4489167 C33.7091465,20.4489167 43.2919236,11.5594167 43.2919236,0.590333333 L43.2919236,0.25875 L33.3741656,0.25875 L33.3741656,0.25875 Z" id="Shape" fill="#333152"></path>
                        <path d="M9.58084076,0.25875 L9.58084076,0.590333333 C9.58084076,7.11658333 14.8901911,12.4046667 21.4755669,12.4046667 C28.0725605,12.4046667 33.3761019,7.11658333 33.3761019,0.590333333 L33.3761019,0.25875 L9.58084076,0.25875 L9.58084076,0.25875 Z" id="Shape" fill="#FFFFFF"></path>
                        <path d="M25.1526115,0.25875 L19.570242,0.25875 C19.5218344,0.25875 19.4695541,0.285583333 19.4250191,0.295166667 C20.1143439,0.438916667 20.4957962,1.99141667 20.3505732,3.0245 C20.1259618,4.60383333 18.7744204,5.70016667 17.207949,5.727 C17.6668535,7.79125 19.3669299,9.45108333 21.6207898,9.76541667 C24.503949,10.1698333 27.176051,8.211 27.5788025,5.35708333 C27.8769936,3.25641667 26.8584968,0.25875 25.1526115,0.25875 L25.1526115,0.25875 Z" id="Shape" fill="#333152"></path>
                    </g>
                </g>
                <path d="M198.577834,234.310583 C199.910013,232.865417 211.219975,220.16175 196.093554,220.16175 C182.425172,220.16175 172.590675,231.079083 169.984408,234.310583 L198.577834,234.310583 L198.577834,234.310583 Z" id="Shape-Copy-34" fill="#C49A7E"></path>
                <path d="M133.332076,234.310583 C130.727745,231.079083 120.893248,220.16175 107.220994,220.16175 C92.1023185,220.16175 103.41228,232.865417 104.736713,234.310583 L133.332076,234.310583 L133.332076,234.310583 Z" id="Shape-Copy-33" fill="#D8B7A0"></path>
                <rect id="Rectangle-path-Copy-3" fill="#53537A" x="85.3562293" y="238.172667" width="57.8626242" height="5.38583333"></rect>
                <path d="M258.481325,149.78175 C258.481325,125.7525 222.911389,59.2441667 218.847083,51.7385 L207.475159,30.6666667 L191.185019,143.527667 L183.666344,155.786667 C176.407134,153.373583 164.053503,150.006 151.614675,150.006 C139.189401,150.006 126.919032,153.362083 119.690803,155.779 L112.168255,143.52575 L106.450344,103.963833 C106.458089,103.898667 106.467771,103.8105 106.467771,103.77025 L106.423236,103.7645 L95.8529427,30.6666667 L84.2409172,51.7385 C80.1708025,59.2441667 44.3162293,125.7525 44.3162293,149.78175 L44.3162293,151.192417 L60.7341656,194.48225 C58.108535,218.086 53.0973758,269.356833 57.0338854,279.377167 C59.4871847,285.64275 68.9286115,298.58025 76.9139363,308.949417 L66.157758,408.184833 L80.9666242,418.527167 L88.793172,346.33975 C89.9181656,353.3605 91.5775796,360.774167 94.0405605,367.471 C97.4368408,376.69975 103.439389,383.686 111.12265,387.83175 C111.579618,409.925167 132.321325,421.839167 151.862522,421.839167 C171.243006,421.839167 191.812382,409.915583 192.261605,387.8145 C199.929376,383.676417 205.924178,376.690167 209.316586,367.471 C211.882191,360.505833 213.564841,352.749083 214.684025,345.484917 L222.557045,417.933 L237.365911,407.222667 L226.636841,308.650417 C234.560204,298.32725 243.82349,285.5795 246.253554,279.382917 C250.190064,269.3645 244.975592,218.086 242.353834,194.486083 L258.479389,151.1905 L258.479389,149.78175 L258.481325,149.78175 Z M60.6141146,148.503333 C61.5125605,136.03925 74.6116688,106.175667 87.1066497,81.0079167 L90.4370955,104.019417 C89.166879,112.623333 83.3618344,146.36625 67.7900637,167.6355 L60.6141146,148.503333 L60.6141146,148.503333 Z M151.862522,406.130167 C143.154955,406.130167 130.774217,402.28725 127.693554,392.100167 C128.009172,392.10975 128.318981,392.136583 128.640408,392.136583 C130.323057,392.136583 131.901146,391.98325 133.425019,391.768583 C137.841732,397.855917 144.721427,399.72275 151.692127,399.72275 C158.674446,399.72275 165.567694,397.873167 169.992153,391.77625 C171.506344,391.981333 173.067006,392.136583 174.736102,392.136583 C175.063338,392.136583 175.378955,392.10975 175.706191,392.100167 C172.65651,402.28725 160.440357,406.130167 151.862522,406.130167 L151.862522,406.130167 Z M141.816968,389.386167 C143.935287,388.45275 145.848357,387.341083 147.534879,386.11825 C149.076178,386.56675 150.555516,386.56675 151.690191,386.56675 C152.819057,386.56675 154.282904,386.576333 155.812586,386.127833 C157.502981,387.341083 159.419924,388.45275 161.538242,389.386167 C158.881631,391.352667 155.609274,392.458583 151.697936,392.458583 C147.765299,392.458583 144.477452,391.360333 141.816968,389.386167 L141.816968,389.386167 Z M231.471796,273.696167 C229.173401,279.540083 213.307312,300.42025 202.768,313.384583 L201.009834,315.558083 L201.01758,318.3315 C201.01758,318.582583 201.009834,344.175833 194.416713,362.087083 C189.649529,375.03225 179.061809,376.431417 174.736102,376.431417 C163.784357,376.431417 159.057834,366.4935 158.891312,366.135083 L158.265885,356.825833 L144.951847,356.825833 L144.351592,366.081417 C144.161834,366.503083 139.55149,376.4065 128.653962,376.4065 C124.318573,376.4065 113.734726,375.022667 108.963669,362.0775 C102.391847,344.2295 102.360866,318.582583 102.360866,318.321917 L102.370548,315.5485 L100.612382,313.384583 C90.078879,300.429833 74.2108535,279.549667 71.9705478,273.847583 C70.179465,267.67975 73.1362038,227.793917 76.9003822,194.371083 L77.1075669,192.51575 L74.1372739,184.601833 C84.3416051,174.01225 91.5020637,159.437917 96.4415796,145.565083 L96.9217834,148.94225 L113.128662,175.304083 L119.460382,172.613083 C119.619159,172.546 135.857019,165.707333 151.624357,165.707333 C167.291006,165.707333 183.796076,172.55175 183.950981,172.618833 L190.273019,175.286833 L206.460535,148.9365 L207.095643,144.535833 C211.982879,158.54475 219.135592,173.37975 229.388331,184.205083 L226.278624,192.51 L226.485809,194.363417 C230.248051,227.793917 233.20479,267.67975 231.471796,273.696167 L231.471796,273.696167 Z M235.768459,167.183167 C218.943898,143.769167 213.665529,105.706083 213.208561,102.227333 L216.277605,81.0098333 C228.77065,106.175667 241.877503,136.041167 242.775949,148.50525 L235.768459,167.183167 L235.768459,167.183167 Z" id="Shape-Copy-32" fill="#333152"></path>
                <g id="Group-Copy-9" transform="translate(127.796178, 329.666667)">
                    <path d="M42.5658089,0.191666667 L5.34614013,0.191666667 C5.34614013,0.191666667 0.340789809,8.82816667 0.340789809,11.6303333 C0.340789809,19.9525 23.2492229,33.2024167 23.2492229,33.2024167 C23.2492229,33.2024167 47.4472357,19.5576667 47.4472357,11.6303333 C47.4472357,7.84875 42.5658089,0.191666667 42.5658089,0.191666667 L42.5658089,0.191666667 Z" id="Shape" fill="#333152"></path>
                    <g id="Group" transform="translate(9.681529, 21.083333)">
                        <path d="M25.7102675,4.47733333 C23.6345478,0.83375 20.9547006,0.168666667 19.7251465,2.9785 C18.499465,5.79025 19.2004076,11.02275 21.2761274,14.6586667 C23.3518471,18.3041667 26.0336306,18.96925 27.2573758,16.1575 C28.4869299,13.3476667 27.7898599,8.11325 25.7102675,4.47733333 L25.7102675,4.47733333 Z" id="Shape" fill="#C49A7E"></path>
                        <path d="M2.71470064,4.47733333 C0.63510828,8.11325 -0.0561528662,13.3476667 1.16759236,16.1575 C2.39327389,18.96925 5.06924841,18.3041667 7.15464968,14.6586667 C9.23036943,11.0246667 9.92550318,5.79025 8.69594904,2.9785 C7.47220382,0.168666667 4.79429299,0.83375 2.71470064,4.47733333 L2.71470064,4.47733333 Z" id="Shape" fill="#D8B7A0"></path>
                    </g>
                </g>
            </g>
        </g>
    </g>
</svg>