<?xml version="1.0" encoding="UTF-8" standalone="no"?>
<svg width="650px" height="825px" viewBox="0 0 650 825" version="1.1" xmlns="http://www.w3.org/2000/svg" xmlns:xlink="http://www.w3.org/1999/xlink">
    <!-- Generator: Sketch 3.8.3 (29802) - http://www.bohemiancoding.com/sketch -->
    <title>wordmark-symbol _vertical</title>
    <desc>Created with Sketch.</desc>
    <defs></defs>
    <g id="Logo" stroke="none" stroke-width="1" fill="none" fill-rule="evenodd">
        <g id="wordmark-symbol-_vertical">
            <g id="Group-2" transform="translate(50.000000, 50.000000)">
                <g id="wordmark" transform="translate(0.000000, 425.000000)" fill="#0D1F31">
                    <path d="M46.6728972,220.96558 C28.1682243,220.96558 13.1588785,217.786957 0.308411215,211.634783 L4.21495327,182.104348 C17.7850467,188.769203 33.1028037,191.947826 45.953271,191.947826 C55.3084112,191.947826 61.4766355,188.769203 61.4766355,183.12971 C61.4766355,166.928986 2.98130841,170.825362 2.98130841,128.477899 C2.98130841,101.408333 27.8598131,87.1557971 59.0093458,87.1557971 C74.5327103,87.1557971 90.5700935,91.3597826 100.953271,95.051087 L96.7383178,124.068841 C85.8411215,119.864855 71.0373832,115.968478 58.7009346,115.968478 C51.0934579,115.968478 44.9252336,118.63442 44.9252336,123.556159 C44.9252336,139.551812 104.654206,136.373188 104.654206,177.69529 C104.654206,205.175 80.1869159,220.96558 46.6728972,220.96558 L46.6728972,220.96558 Z" id="Shape"></path>
                    <path d="M208.383178,218.197101 L208.383178,145.088768 C208.383178,128.375362 200.981308,120.480072 186.897196,120.480072 C180.009346,120.480072 172.813084,122.428261 167.878505,125.401812 L167.878505,218.197101 L124.495327,218.197101 L124.495327,91.4623188 L166.953271,87.976087 L165.925234,108.688406 L167.364486,108.688406 C176.514019,96.384058 192.037383,87.0532609 210.542056,87.0532609 C232.747664,87.0532609 251.971963,100.793116 251.971963,133.297101 L251.971963,218.197101 L208.383178,218.197101 L208.383178,218.197101 Z" id="Shape"></path>
                    <path d="M495.102804,218.197101 L460.35514,157.905797 L456.859813,157.905797 L456.859813,218.197101 L413.476636,218.197101 L413.476636,68.084058 L456.859813,0.410144928 L456.859813,140.474638 C465.495327,129.913406 494.588785,89.8217391 494.588785,89.8217391 L548.149533,89.8217391 L497.364486,143.448188 L549.897196,218.299638 L495.102804,218.299638 L495.102804,218.197101 Z" id="Shape"></path>
                    <path d="M357.242991,90.2318841 L339.457944,148.062319 C335.962617,158.931159 332.570093,178.925725 332.570093,178.925725 C332.570093,178.925725 329.897196,158.213406 326.196262,147.344565 L307.17757,90.2318841 L258.551402,90.2318841 L311.392523,218.197101 C304.196262,235.218116 293.093458,249.573188 278.28972,249.573188 C275.616822,249.573188 272.943925,249.470652 270.373832,249.163043 L253.102804,275.822464 L253.102804,275.822464 C258.551402,278.898551 268.934579,282.077174 281.271028,282.077174 C313.345794,282.077174 334.831776,256.135507 349.841121,217.786957 L400.214953,90.2318841 L357.242991,90.2318841 L357.242991,90.2318841 Z" id="Shape"></path>
                </g>
                <g id="symbol" transform="translate(135.000000, 0.000000)">
                    <g id="Group">
                        <path d="M109.217917,110.647472 L112.18489,115.524341 C120.095524,113.317079 130.002228,111.345825 140.114352,111.345825 C150.253607,111.345825 160.210697,113.324817 168.163966,115.537882 L171.140628,110.65521 L174.299455,88.557441 C163.687345,87.9364672 152.387269,87.5650437 140.37791,87.5650437 C128.225145,87.5650437 116.787476,87.9461397 106.0494,88.580655 L109.217917,110.647472 L109.217917,110.647472 Z" id="Shape" fill="#DBDBDB"></path>
                        <polygon id="Shape" fill="#3B3B63" points="205.261779 280.374507 139.897303 280.374507 139.897303 170.334467 73.5735517 277.157437 63.2618207 386.849266 138.876014 441.15062 139.897303 441.885729 217.226566 386.458498"></polygon>
                        <g transform="translate(139.531034, 87.052402)" id="Shape" fill="#C6C6C6">
                            <path d="M28.632931,28.4874148 L31.6095931,23.6047424 L34.7684207,1.5069738 C24.1563103,0.886 12.8562345,0.514576419 0.846875862,0.514576419 C0.784862069,0.514576419 0.720910345,0.518445415 0.656958621,0.518445415 L0.656958621,24.2972926 C10.7787724,24.3069651 20.7009793,26.2782183 28.632931,28.4874148 L28.632931,28.4874148 Z"></path>
                            <path d="M112.471703,12.1060873 C114.936752,20.2116332 116.467717,27.462131 116.467717,32.9812533 L116.467717,35.9971354 L100.506917,79.2196201 C108.68111,154.044061 105.016483,163.457328 103.626986,167.018738 C102.814993,169.111865 100.406145,175.300323 84.9298276,195.896921 L94.7977724,287.358044 L140.850766,254.357445 L140.850766,20.0646114 C140.848828,20.0646114 130.984759,16.3194236 112.471703,12.1060873 L112.471703,12.1060873 Z"></path>
                        </g>
                        <polygon id="Shape" fill="#3B3B63" points="217.534697 386.232162 205.593166 280.374507 140.224814 280.374507 140.224814 441.640048"></polygon>
                        <polygon id="Shape" fill="#53537A" points="63.2618207 386.849266 139.897303 441.885729 139.897303 170.334467 73.5735517 277.157437"></polygon>
                        <path d="M172.878952,355.580044 C172.878952,373.729502 155.920117,382.726852 140.362407,382.726852 C124.804697,382.726852 107.502848,373.729502 107.502848,355.580044" id="Shape" fill="#BC9375"></path>
                        <path d="M163.344331,345.294319 C163.344331,366.579598 151.879531,372.286367 140.189931,372.286367 C128.502269,372.286367 117.033593,366.579598 117.033593,345.294319" id="Shape" fill="#083251"></path>
                        <path d="M140.189931,364.966227 C127.699966,364.966227 121.62649,355.80638 121.62649,336.975978 L127.581752,336.975978 C127.581752,359.021515 136.095083,359.021515 140.189931,359.021515 C144.282841,359.021515 152.79811,359.021515 152.79811,336.975978 L158.751434,336.975978 C158.751434,355.80638 152.677959,364.966227 140.189931,364.966227 L140.189931,364.966227 Z" id="Shape" fill="#FFFFFF"></path>
                        <g transform="translate(40.696552, 24.213974)" id="Shape">
                            <path d="M198.635993,95.8196812 C198.635993,72.8571921 159.813421,0.607567686 159.813421,0.607567686 L146.680062,92.2350568 L134.893566,111.580035 L99.5670207,113.015432 L99.4274897,113.299803 L99.4274897,113.015432 L64.095131,111.580035 L52.3125103,92.2350568 L39.1791517,0.607567686 C39.1791517,0.607567686 0.352703448,72.8571921 0.352703448,95.8196812 L16.7553517,139.941707 C16.7553517,139.941707 8.47844828,214.054253 12.2574138,223.757694 C16.0247517,233.46307 42.1945724,265.91814 42.1945724,265.91814 C42.1945724,265.91814 42.1170552,293.202297 49.2815862,312.818105 C54.3938483,326.825803 65.6571034,332.507424 76.4416897,332.507424 C92.9606138,332.507424 99.4236138,317.358371 99.4236138,317.358371 C99.4236138,317.358371 106.041648,332.507424 122.560572,332.507424 C133.343221,332.507424 144.594848,326.835476 149.718738,312.818105 C156.875517,293.210035 156.803814,265.91814 156.803814,265.91814 C156.803814,265.91814 182.967821,233.46307 186.74291,223.757694 C190.519938,214.052319 182.241097,139.941707 182.241097,139.941707 L198.635993,95.8196812 L198.635993,95.8196812 Z" fill="#C49A7E"></path>
                            <path d="M99.4933793,113.162454 L99.4255517,113.299803 L99.4255517,113.017367 L64.0931931,111.581969 L52.3105724,92.2369913 L39.1733379,0.609502183 C39.1733379,0.609502183 0.350765517,72.8591266 0.350765517,95.8216157 L16.7495379,139.943642 C16.7495379,139.943642 8.47457241,214.056188 12.2477241,223.759629 C16.0228138,233.465004 42.1829448,265.920074 42.1829448,265.920074 C42.1829448,265.920074 42.1151172,293.204231 49.2718966,312.820039 C54.3919103,326.827738 65.6551655,332.509358 76.4300621,332.509358 C92.9586759,332.509358 99.4216759,317.360306 99.4216759,317.360306 C99.4216759,317.360306 99.4507448,317.414472 99.4953172,317.513131 L99.4953172,113.162454 L99.4933793,113.162454 L99.4933793,113.162454 Z" fill="#D8B7A0"></path>
                        </g>
                        <path d="M223.290352,168.498629 C220.280745,162.203773 224.559697,147.310074 224.559697,147.310074 C200.042931,122.19062 193.911317,69.8102227 193.911317,69.8102227 C189.333924,86.3153581 179.384586,134.979585 179.384586,134.979585 C179.384586,134.979585 161.086641,128.168218 140.271324,128.135332 L140.271324,128.135332 L140.197683,128.135332 L140.11629,128.135332 L140.11629,128.135332 C138.97291,128.141135 137.846972,128.170153 136.721034,128.206908 L136.721034,333.551917 L138.275255,335.826886 L138.275255,334.702943 L139.236469,334.702943 L139.236469,335.826886 L139.246159,334.702943 L141.143393,334.702943 L141.143393,335.826886 L141.143393,334.702943 L142.114297,334.702943 L142.114297,335.826886 L159.061503,311.090463 L162.74551,241.630384 L183.845703,265.687799 L211.027124,273.625044 C211.027124,273.625044 221.197386,266.378415 221.197386,266.405498 C225.515097,260.362127 226.947228,255.214428 227.991772,252.542886 C231.766862,242.823969 223.290352,168.498629 223.290352,168.498629 L223.290352,168.498629 Z" id="Shape" fill="#3B3B63"></path>
                        <path d="M140.379848,128.133397 C140.352717,128.133397 140.3314,128.131463 140.308145,128.131463 L140.308145,128.133397 C119.485076,128.168218 101.185193,134.975716 101.185193,134.975716 C101.185193,134.975716 91.2319793,86.3134236 86.6584621,69.8063537 C86.6584621,69.8063537 80.5307241,122.186751 56.0100828,147.306205 C56.0100828,147.306205 60.2890345,162.201838 57.2794276,168.49476 C57.2794276,168.49476 48.8029172,242.823969 52.5780069,252.52741 C53.6206138,255.200886 55.0643724,260.346651 59.376269,266.390022 C59.376269,266.362939 69.5523448,273.611502 69.5523448,273.611502 L96.7279517,265.672323 L117.824269,241.618777 L121.517966,311.078856 L138.455483,335.815279 L138.455483,334.691336 L139.426386,334.691336 L139.426386,335.815279 L139.426386,334.691336 L140.37791,334.691336 L140.37791,128.133397 L140.379848,128.133397 L140.379848,128.133397 Z" id="Shape" fill="#53537A"></path>
                        <g transform="translate(80.455172, 214.729258)" id="Shape">
                            <g transform="translate(76.517241, 0.000000)">
                                <path d="M32.5398,0.261157205 L32.5398,0.261157205 L8.72262759,0.261157205 L8.72262759,0.261157205 L0.784862069,0.261157205 L0.784862069,0.595825328 C0.784862069,11.6688908 10.3737448,20.6391572 21.6214966,20.6391572 C32.8731241,20.6391572 42.4620069,11.6669563 42.4620069,0.595825328 L42.4620069,0.261157205 L32.5398,0.261157205 L32.5398,0.261157205 Z" fill="#333152"></path>
                                <path d="M8.72262759,0.261157205 L8.72262759,0.595825328 C8.72262759,7.18279039 14.0325586,12.5200699 20.6331517,12.5200699 C27.2337448,12.5200699 32.5417379,7.18279039 32.5417379,0.595825328 L32.5417379,0.261157205 L8.72262759,0.261157205 L8.72262759,0.261157205 Z" fill="#FFFFFF"></path>
                                <path d="M24.307469,0.261157205 L18.7262276,0.261157205 C18.6719655,0.261157205 18.6254552,0.288240175 18.5770069,0.297912664 C19.2688483,0.443 19.6525586,2.00994323 19.5033379,3.05263755 C19.2804759,4.64666376 17.9200483,5.75319651 16.3619517,5.78027948 C16.8154276,7.86373362 18.516931,9.53900873 20.7765586,9.85626638 C23.6640759,10.2644454 26.3326069,8.28738865 26.7415103,5.4069214 C27.0360759,3.28671179 26.0147862,0.261157205 24.307469,0.261157205 L24.307469,0.261157205 Z" fill="#333152"></path>
                            </g>
                            <g>
                                <path d="M32.4021793,0.261157205 L32.4021793,0.261157205 L8.58888276,0.261157205 L8.58888276,0.261157205 L0.64917931,0.261157205 L0.64917931,0.595825328 C0.64917931,11.6688908 10.24,20.6391572 21.4858138,20.6391572 C32.7374414,20.6391572 42.3282621,11.6669563 42.3282621,0.595825328 L42.3282621,0.261157205 L32.4021793,0.261157205 L32.4021793,0.261157205 Z" fill="#333152"></path>
                                <path d="M8.58888276,0.261157205 L8.58888276,0.595825328 C8.58888276,7.18279039 13.9026897,12.5200699 20.4935931,12.5200699 C27.0961241,12.5200699 32.4041172,7.18279039 32.4041172,0.595825328 L32.4041172,0.261157205 L8.58888276,0.261157205 L8.58888276,0.261157205 Z" fill="#FFFFFF"></path>
                                <path d="M24.1737241,0.261157205 L18.586669,0.261157205 C18.5382207,0.261157205 18.4858966,0.288240175 18.4413241,0.297912664 C19.1312276,0.443 19.513,2.00994323 19.3676552,3.05263755 C19.1428552,4.64666376 17.7901793,5.75319651 16.2223931,5.78027948 C16.6816828,7.86373362 18.3831862,9.53900873 20.6389379,9.85626638 C23.5245172,10.2644454 26.1988621,8.28738865 26.6019517,5.4069214 C26.9003931,3.28671179 25.8810414,0.261157205 24.1737241,0.261157205 L24.1737241,0.261157205 Z" fill="#333152"></path>
                            </g>
                        </g>
                        <path d="M187.116931,205.538459 C188.450228,204.079847 199.769683,191.257996 184.630566,191.257996 C170.95071,191.257996 161.107959,202.276895 158.499503,205.538459 L187.116931,205.538459 L187.116931,205.538459 Z" id="Shape" fill="#C49A7E"></path>
                        <path d="M121.816407,205.538459 C119.20989,202.276895 109.367138,191.257996 95.6834069,191.257996 C80.5520414,191.257996 91.8714966,204.079847 93.1970414,205.538459 L121.816407,205.538459 L121.816407,205.538459 Z" id="Shape" fill="#D8B7A0"></path>
                        <rect id="Rectangle-path" fill="#53537A" x="73.8002897" y="209.436472" width="57.9111931" height="5.43593886"></rect>
                        <path d="M247.070703,120.223236 C247.070703,95.9704367 211.47091,28.8433624 207.403193,21.267869 L196.021724,0 L179.71791,113.910969 L172.192924,126.284017 C164.927621,123.848485 152.563621,120.449572 140.114352,120.449572 C127.678648,120.449572 115.397979,123.836878 108.163683,126.276279 L100.634821,113.909035 L94.9121103,73.9790655 C94.9198621,73.9132926 94.9295517,73.8243057 94.9295517,73.7836812 L94.8849793,73.7778777 L84.3058138,0 L72.6840414,21.267869 C68.6105103,28.8433624 32.7258414,95.9704367 32.7258414,120.223236 L32.7258414,121.647026 L49.1575586,165.339594 C46.5297241,189.162934 41.5143586,240.910751 45.4541724,251.024306 C47.909531,257.348179 57.3588828,270.406039 65.3509103,280.871672 L54.5857034,381.030297 L69.407,391.468847 L77.2401172,318.609856 C78.3660552,325.695921 80.0268621,333.178559 82.4919103,339.937694 C85.8910414,349.252301 91.8986276,356.303546 99.5883379,360.487865 C100.04569,382.786821 120.804807,394.811659 140.362407,394.811659 C159.759159,394.811659 180.3458,382.777148 180.7954,360.470454 C188.469607,356.293873 194.469441,349.242629 197.864697,339.937694 C200.432455,332.907729 202.116517,325.078817 203.236641,317.74707 L211.116269,390.869153 L225.937566,380.059179 L215.19949,280.569891 C223.129503,270.150686 232.400566,257.284341 234.832669,251.030109 C238.772483,240.918489 233.553634,189.162934 230.929676,165.343463 L247.068766,121.645092 L247.068766,120.223236 L247.070703,120.223236 Z M49.0374069,118.932926 C49.9366069,106.352886 63.0467103,76.211476 75.5521793,50.8095852 L78.8854207,74.0351659 C77.6141379,82.7191266 71.8042207,116.775961 56.2193793,138.243083 L49.0374069,118.932926 L49.0374069,118.932926 Z M140.362407,378.956515 C131.647531,378.956515 119.2564,375.077847 116.173152,364.795991 C116.489034,364.805664 116.799103,364.832747 117.1208,364.832747 C118.804862,364.832747 120.384276,364.677987 121.909428,364.461323 C126.329848,370.605288 133.215317,372.489489 140.191869,372.489489 C147.180048,372.489489 154.079083,370.622699 158.507255,364.469061 C160.022717,364.676052 161.58469,364.832747 163.255186,364.832747 C163.582697,364.832747 163.898579,364.805664 164.22609,364.795991 C161.173848,375.077847 148.947441,378.956515 140.362407,378.956515 L140.362407,378.956515 Z M130.308421,362.056742 C132.428517,361.114642 134.343193,359.992633 136.031131,358.758424 C137.573724,359.211096 139.054303,359.211096 140.189931,359.211096 C141.319745,359.211096 142.784821,359.220769 144.315786,358.768096 C146.0076,359.992633 147.926152,361.114642 150.046248,362.056742 C147.387407,364.041537 144.112303,365.157742 140.197683,365.157742 C136.261745,365.157742 132.971138,364.049275 130.308421,362.056742 L130.308421,362.056742 Z M220.038503,245.290454 C217.738179,251.188738 201.858772,272.263157 191.310614,285.3481 L189.550972,287.541821 L189.558724,290.341039 C189.558724,290.594459 189.550972,316.425808 182.952317,334.50369 C178.181131,347.569288 167.584524,348.981472 163.255186,348.981472 C152.294248,348.981472 147.563759,338.9511 147.397097,338.589349 L146.771145,329.193493 L133.445931,329.193493 L132.845172,338.535183 C132.655255,338.960773 128.041041,348.956323 117.134366,348.956323 C112.795338,348.956323 102.202607,347.559616 97.4275448,334.494017 C90.8502069,316.479974 90.8192,290.594459 90.8192,290.331367 L90.8288897,287.532148 L89.0692483,285.3481 C78.5269034,272.27283 62.6455586,251.19841 60.4033724,245.443279 C58.6107862,239.218066 61.5700069,198.961166 65.3373448,165.227393 L65.5447034,163.354799 L62.5719172,155.367258 C72.7848138,144.679157 79.9512828,129.969236 84.8949448,115.967341 L85.3755517,119.375926 L101.596034,145.983009 L107.933069,143.266974 C108.091979,143.199266 124.343469,136.296978 140.124041,136.296978 C155.803841,136.296978 172.322766,143.20507 172.4778,143.272777 L178.805145,145.965598 L195.006248,119.370122 L195.64189,114.928515 C200.533228,129.06776 207.691945,144.040773 217.95329,154.966817 L214.840972,163.348996 L215.048331,165.219655 C218.813731,198.961166 221.772952,239.218066 220.038503,245.290454 L220.038503,245.290454 Z M224.338772,137.786541 C207.50009,114.154716 202.21729,75.737524 201.759938,72.2264105 L204.831559,50.8115197 C217.33509,76.211476 230.452945,106.354821 231.352145,118.93486 L224.338772,137.786541 L224.338772,137.786541 Z" id="Shape" fill="#333152"></path>
                        <g transform="translate(116.275862, 301.781659)" id="Shape">
                            <path d="M42.6015379,0.193449782 L5.35062759,0.193449782 C5.35062759,0.193449782 0.341075862,8.91029694 0.341075862,11.7385328 C0.341075862,20.1381223 23.2687379,33.5113057 23.2687379,33.5113057 C23.2687379,33.5113057 47.4870621,19.7396157 47.4870621,11.7385328 C47.4870621,7.92176856 42.6015379,0.193449782 42.6015379,0.193449782 L42.6015379,0.193449782 Z" fill="#333152"></path>
                            <g transform="translate(9.689655, 22.279476)">
                                <path d="M25.7318483,3.5189869 C23.6543862,-0.15849345 20.9722897,-0.829764192 19.7417034,2.00620961 C18.5149931,4.8441179 19.2165241,10.1252969 21.2939862,13.7950393 C23.3714483,17.4744541 26.0554828,18.1457249 27.2802552,15.3078166 C28.5108414,12.4718428 27.8131862,7.18872926 25.7318483,3.5189869 L25.7318483,3.5189869 Z" fill="#C49A7E"></path>
                                <path d="M2.71697931,3.5189869 C0.635641379,7.18872926 -0.0562,12.4718428 1.16857241,15.3078166 C2.39528276,18.1457249 5.07350345,17.4744541 7.16065517,13.7950393 C9.23811724,10.1272314 9.93383448,4.8441179 8.70324828,2.00620961 C7.47847586,-0.829764192 4.79831724,-0.15849345 2.71697931,3.5189869 L2.71697931,3.5189869 Z" fill="#D8B7A0"></path>
                            </g>
                        </g>
                        <path d="M56.0895379,283.245301 C40.3690414,262.397218 37.9446897,256.172004 37.1230069,254.059533 C33.6793034,245.207271 34.6598966,215.686834 40.041531,166.291367 L23.7939172,123.074686 L23.7939172,120.033655 C23.7939172,114.56483 25.2996897,107.389777 27.7647379,99.3364629 C9.67996552,103.474354 0,107.117013 0,107.117013 L0,341.407913 L46.2506621,374.551664 L56.0895379,283.245301 L56.0895379,283.245301 Z" id="Shape" fill="#DBDBDB"></path>
                    </g>
                </g>
            </g>
        </g>
    </g>
</svg>