<?xml version="1.0" encoding="UTF-8" standalone="no"?>
<svg width="1000px" height="600px" viewBox="0 0 1000 600" version="1.1" xmlns="http://www.w3.org/2000/svg" xmlns:xlink="http://www.w3.org/1999/xlink">
    <!-- Generator: Sketch 3.8.3 (29802) - http://www.bohemiancoding.com/sketch -->
    <title>wordmark</title>
    <desc>Created with Sketch.</desc>
    <defs></defs>
    <g id="Logo" stroke="none" stroke-width="1" fill="none" fill-rule="evenodd">
        <g id="wordmark" fill="#0D1F31">
            <g transform="translate(88.000000, 88.000000)" id="Shape">
                <path d="M70.0093458,331.838768 C42.2523364,331.838768 19.7383178,327.065217 0.462616822,317.826087 L6.32242991,273.478261 C26.6775701,283.487319 49.6542056,288.26087 68.9299065,288.26087 C82.9626168,288.26087 92.2149533,283.487319 92.2149533,275.018116 C92.2149533,250.688406 4.47196262,256.539855 4.47196262,192.943841 C4.47196262,152.291667 41.7897196,130.887681 88.5140187,130.887681 C111.799065,130.887681 135.85514,137.201087 151.429907,142.744565 L145.107477,186.322464 C128.761682,180.009058 106.556075,174.157609 88.0514019,174.157609 C76.6401869,174.157609 67.3878505,178.161232 67.3878505,185.552536 C67.3878505,209.574275 156.981308,204.800725 156.981308,266.856884 C156.981308,308.125 120.280374,331.838768 70.0093458,331.838768 L70.0093458,331.838768 Z"></path>
                <path d="M312.574766,327.681159 L312.574766,217.889493 C312.574766,192.789855 301.471963,180.932971 280.345794,180.932971 C270.014019,180.932971 259.219626,183.858696 251.817757,188.324275 L251.817757,327.681159 L186.742991,327.681159 L186.742991,137.355072 L250.429907,132.119565 L248.88785,163.224638 L251.046729,163.224638 C264.771028,144.746377 288.056075,130.733696 315.813084,130.733696 C349.121495,130.733696 377.957944,151.367754 377.957944,200.181159 L377.957944,327.681159 L312.574766,327.681159 L312.574766,327.681159 Z"></path>
                <path d="M742.654206,327.681159 L690.53271,237.137681 L685.28972,237.137681 L685.28972,327.681159 L620.214953,327.681159 L620.214953,102.246377 L685.28972,0.615942029 L685.28972,210.960145 C698.242991,195.099638 741.883178,134.891304 741.883178,134.891304 L822.224299,134.891304 L746.046729,215.425725 L824.845794,327.835145 L742.654206,327.835145 L742.654206,327.681159 Z"></path>
                <path d="M535.864486,135.507246 L509.186916,222.355072 C503.943925,238.677536 498.85514,268.70471 498.85514,268.70471 C498.85514,268.70471 494.845794,237.599638 489.294393,221.277174 L460.766355,135.507246 L387.827103,135.507246 L467.088785,327.681159 C456.294393,353.242754 439.640187,374.800725 417.434579,374.800725 C413.425234,374.800725 409.415888,374.646739 405.560748,374.184783 L379.654206,414.221014 L379.654206,414.221014 C387.827103,418.84058 403.401869,423.61413 421.906542,423.61413 C470.018692,423.61413 502.247664,384.655797 524.761682,327.065217 L600.32243,135.507246 L535.864486,135.507246 L535.864486,135.507246 Z"></path>
            </g>
        </g>
    </g>
</svg>