<?xml version="1.0" encoding="UTF-8" standalone="no"?>
<svg width="600px" height="600px" viewBox="0 0 600 600" version="1.1" xmlns="http://www.w3.org/2000/svg" xmlns:xlink="http://www.w3.org/1999/xlink" style="background: #FFFFFF;">
    <!-- Generator: Sketch 3.8.3 (29802) - http://www.bohemiancoding.com/sketch -->
    <title>snyk_avatar</title>
    <desc>Created with Sketch.</desc>
    <defs></defs>
    <g id="Page-1" stroke="none" stroke-width="1" fill="none" fill-rule="evenodd">
        <g id="snyk_avatar">
            <rect id="Rectangle-2" fill="#222049" x="0" y="0" width="600" height="602"></rect>
            <g id="symbol" transform="translate(139.000000, 40.000000)">
                <path d="M230.644677,31.646664 L233.652564,37.2200791 C238.09916,45.4315729 277.014819,118.194299 277.014819,144.483241 L277.0127,144.483241 L277.0127,146.024469 L259.37037,193.391536 C262.238731,219.210771 267.943678,275.311462 263.636899,286.272003 C260.978262,293.051308 250.843667,306.997846 242.175029,318.291796 L253.91328,426.133705 L237.711486,437.85123 L230.376155,370.352299 L228.200838,371.925541 L227.638109,366.747361 C226.524288,372.153869 225.087462,377.589357 223.225624,382.643822 C219.514126,392.729952 212.955449,400.373183 204.566445,404.900409 C204.074968,429.079861 181.570829,442.124729 160.367408,442.124729 C138.988158,442.124729 116.295478,429.090346 115.795527,404.919281 C107.389575,400.383668 100.822425,392.740436 97.1066894,382.643822 C95.302044,377.737094 93.8917127,372.47862 92.7872455,367.233091 L92.2166122,372.496171 L90.1182965,371.030761 L82.8030134,438.501271 L66.6012192,427.186353 L78.369128,318.618914 C69.6327003,307.274638 59.3032091,293.120506 56.6191514,286.265712 C52.3123722,275.303074 57.7948831,219.210771 60.6674815,193.387342 L42.7052675,146.026566 L42.7052675,144.483241 C42.7052675,118.194299 81.9323364,45.4315729 86.3852877,37.2200791 L87.3469058,35.4751066 C91.3078833,27.7366888 94.3520161,22.0982196 95.3612614,20.2371142 L106.513515,0 C106.513515,0 116.698757,70.3310586 116.691318,70.3936438 L122.182832,108.388393 L127.303126,150.350601 C133.542625,148.377662 142.322478,146.089581 151.741648,145.157094 C154.281793,138.970384 157.038039,134.850036 160.067393,134.850036 C165.867224,134.850036 171.647769,140.382489 176.858514,146.340675 C182.715023,147.39818 188.048155,148.823305 192.301626,150.136084 L198.070971,108.390234 L213.716112,0 L224.63777,20.2371142 C225.47077,21.7754073 227.681771,25.8943263 230.644677,31.646664 Z" id="Shape-Copy-45" fill="#FFFFFF"></path>
                <path d="M319.977707,396.769637 L159.987721,509.758185 L0,396.769637 L0,133.29233 C0,133.29233 59.1570652,111.309524 160.20516,111.309524 C261.253255,111.309524 319.977707,133.29233 319.977707,133.29233 L319.977707,396.769637 L319.977707,396.769637 L319.977707,396.769637 Z" id="Shape-Copy-44" fill="#FFFFFF"></path>
                <polygon id="Shape-Copy-42" fill="#3B3B63" points="228.825975 325.699762 159.864134 325.699762 159.864134 210.579405 89.8902229 322.334167 79.0109809 437.090238 158.786637 493.898571 159.864134 494.667619 241.449248 436.681429"></polygon>
                <g id="Shape-+-Shape-Copy" transform="translate(10.222930, 123.452381)">
                    <path d="M148.459033,370.034374 L0,265.103298 L0,20.4151616 C0,20.4151616 54.894217,-2.8616167e-14 148.660803,-2.8616167e-14 C242.42739,-2.8616167e-14 296.920167,20.4151616 296.920167,20.4151616 L296.920167,265.103298 L148.459033,370.034374 Z" id="Shape" fill="#DBDBDB"></path>
                    <path d="M150.609587,2.84217094e-14 C150.540229,2.84217094e-14 150.475073,0.00206903432 150.405715,0.00206903432 L150.405715,370.028166 L150.407817,370.028166 L298.868951,265.097091 L298.868951,20.4151616 C298.868951,20.4151616 244.376174,2.84217094e-14 150.609587,2.84217094e-14 L150.609587,2.84217094e-14 L150.609587,2.84217094e-14 Z" id="Shape" fill="#C6C6C6"></path>
                </g>
                <polygon id="Shape-Copy-41" fill="#3B3B63" points="241.042376 436.444643 228.443637 325.699762 159.477707 325.699762 159.477707 494.410595"></polygon>
                <polygon id="Shape-Copy-40" fill="#53537A" points="79.0109809 437.090238 159.864134 494.667619 159.864134 210.579405 89.8902229 322.334167"></polygon>
                <path d="M194.660943,404.377381 C194.660943,423.364762 176.768771,432.7775 160.354834,432.7775 C143.940898,432.7775 125.686834,423.364762 125.686834,404.377381" id="Shape-Copy-39" fill="#BC9375"></path>
                <path d="M184.60158,393.616786 C184.60158,415.884762 172.505809,421.855 160.172866,421.855 C147.841968,421.855 135.742108,415.884762 135.742108,393.616786" id="Shape-Copy-38" fill="#083251"></path>
                <path d="M160.172866,414.196905 C146.99551,414.196905 140.587777,404.614167 140.587777,384.914405 L146.87079,384.914405 C146.87079,407.977738 155.852656,407.977738 160.172866,407.977738 C164.491032,407.977738 173.474943,407.977738 173.474943,384.914405 L179.755911,384.914405 C179.755911,404.614167 173.348178,414.196905 160.172866,414.196905 L160.172866,414.196905 Z" id="Shape-Copy-37" fill="#FFFFFF"></path>
                <g id="Group-Copy-11" transform="translate(55.203822, 56.666667)">
                    <path d="M209.568019,101.289643 C209.568019,77.2670238 168.608828,1.68178571 168.608828,1.68178571 L154.752669,97.5395238 L142.317497,117.777619 L105.046739,119.279286 L104.899529,119.576786 L104.899529,119.279286 L67.6226369,117.777619 L55.1915541,97.5395238 L41.3353949,1.68178571 C41.3353949,1.68178571 0.37211465,77.2670238 0.37211465,101.289643 L17.6774904,147.44869 C17.6774904,147.44869 8.94506369,224.982857 12.9320064,235.134286 C16.9066815,245.287738 44.5167707,279.24119 44.5167707,279.24119 C44.5167707,279.24119 44.4349873,307.785 51.9938217,328.306429 C57.3874395,342.960833 69.2705732,348.904762 80.6486943,348.904762 C98.0767452,348.904762 104.895439,333.05631 104.895439,333.05631 C104.895439,333.05631 111.877701,348.904762 129.305752,348.904762 C140.681828,348.904762 152.552694,342.970952 157.95858,328.306429 C165.509236,307.793095 165.433586,279.24119 165.433586,279.24119 C165.433586,279.24119 193.037541,245.287738 197.020395,235.134286 C201.005293,224.980833 192.270822,147.44869 192.270822,147.44869 L209.568019,101.289643 L209.568019,101.289643 Z" id="Shape" fill="#C49A7E"></path>
                    <path d="M104.969045,119.433095 L104.897484,119.576786 L104.897484,119.28131 L67.6205924,117.779643 L55.1895096,97.5415476 L41.3292611,1.68380952 C41.3292611,1.68380952 0.370070064,77.2690476 0.370070064,101.291667 L17.6713567,147.450714 C17.6713567,147.450714 8.94097452,224.984881 12.9217834,235.13631 C16.9046369,245.289762 44.5045032,279.243214 44.5045032,279.243214 C44.5045032,279.243214 44.4329427,307.787024 51.9835987,328.308452 C57.3853949,342.962857 69.2685287,348.906786 80.6364268,348.906786 C98.0747006,348.906786 104.893395,333.058333 104.893395,333.058333 C104.893395,333.058333 104.924064,333.115 104.971089,333.218214 L104.971089,119.433095 L104.969045,119.433095 L104.969045,119.433095 Z" id="Shape" fill="#D8B7A0"></path>
                </g>
                <path d="M247.846758,208.65881 C244.671516,202.073333 249.185962,186.492024 249.185962,186.492024 C223.319904,160.212857 216.850834,105.414167 216.850834,105.414167 C212.021522,122.68131 201.524618,173.592262 201.524618,173.592262 C201.524618,173.592262 182.219637,166.466429 160.258739,166.432024 L160.258739,166.432024 L160.181045,166.432024 L160.095172,166.432024 L160.095172,166.432024 C158.888866,166.438095 157.700962,166.468452 156.513057,166.506905 L156.513057,381.332262 L158.152815,383.712262 L158.152815,382.536429 L159.16693,382.536429 L159.16693,383.712262 L159.177153,382.536429 L161.178803,382.536429 L161.178803,383.712262 L161.178803,382.536429 L162.20314,382.536429 L162.20314,383.712262 L180.083045,357.83381 L183.969803,285.166905 L206.231255,310.335 L234.908618,318.63869 C234.908618,318.63869 245.638605,311.0575 245.638605,311.085833 C250.193943,304.763452 251.704892,299.378095 252.806924,296.583214 C256.789777,286.415595 247.846758,208.65881 247.846758,208.65881 L247.846758,208.65881 Z" id="Shape-Copy-36" fill="#3B3B63"></path>
                <path d="M160.373236,166.43 C160.344611,166.43 160.322121,166.427976 160.297586,166.427976 L160.297586,166.43 C138.32851,166.466429 119.021484,173.588214 119.021484,173.588214 C119.021484,173.588214 108.52049,122.679286 103.695268,105.410119 C103.695268,105.410119 97.2302866,160.20881 71.3601401,186.487976 C71.3601401,186.487976 75.874586,202.07131 72.6993439,208.654762 C72.6993439,208.654762 63.7563248,286.415595 67.7391783,296.567024 C68.8391656,299.363929 70.3623822,304.747262 74.911586,311.069643 C74.911586,311.04131 85.647707,318.624524 85.647707,318.624524 L114.318936,310.31881 L136.576299,285.154762 L140.47328,357.821667 L158.342962,383.700119 L158.342962,382.524286 L159.367299,382.524286 L159.367299,383.700119 L159.367299,382.524286 L160.371191,382.524286 L160.371191,166.43 L160.373236,166.43 L160.373236,166.43 Z" id="Shape-Copy-35" fill="#53537A"></path>
                <g id="Group-Copy-10" transform="translate(96.095541, 257.023810)">
                    <g id="Group" transform="translate(81.783439, 0.000000)">
                        <path d="M34.3306433,0.273214286 L34.3306433,0.273214286 L9.20268153,0.273214286 L9.20268153,0.273214286 L0.828057325,0.273214286 L0.828057325,0.623333333 C0.828057325,12.207619 10.9446688,21.5920238 22.8114459,21.5920238 C34.6823121,21.5920238 44.7989236,12.2055952 44.7989236,0.623333333 L44.7989236,0.273214286 L34.3306433,0.273214286 L34.3306433,0.273214286 Z" id="Shape" fill="#333152"></path>
                        <path d="M9.20268153,0.273214286 L9.20268153,0.623333333 C9.20268153,7.51440476 14.8048471,13.0980952 21.768707,13.0980952 C28.7325669,13.0980952 34.3326879,7.51440476 34.3326879,0.623333333 L34.3326879,0.273214286 L9.20268153,0.273214286 L9.20268153,0.273214286 Z" id="Shape" fill="#FFFFFF"></path>
                        <path d="M25.645242,0.273214286 L19.7568344,0.273214286 C19.699586,0.273214286 19.6505159,0.301547619 19.5994013,0.311666667 C20.3293185,0.463452381 20.7341465,2.1027381 20.5767134,3.19357143 C20.341586,4.86119048 18.9062866,6.01880952 17.2624395,6.04714286 C17.7408726,8.22678571 19.5360191,9.97940476 21.9200064,10.3113095 C24.9664395,10.7383333 27.7818344,8.67 28.213242,5.65654762 C28.5240191,3.43845238 27.4465223,0.273214286 25.645242,0.273214286 L25.645242,0.273214286 Z" id="Shape" fill="#333152"></path>
                    </g>
                    <g id="Group">
                        <path d="M35.2404841,0.273214286 L35.2404841,0.273214286 L10.1166115,0.273214286 L10.1166115,0.273214286 L1.73994268,0.273214286 L1.73994268,0.623333333 C1.73994268,12.207619 11.8585987,21.5920238 23.7233312,21.5920238 C35.5941975,21.5920238 45.7128535,12.2055952 45.7128535,0.623333333 L45.7128535,0.273214286 L35.2404841,0.273214286 L35.2404841,0.273214286 Z" id="Shape" fill="#333152"></path>
                        <path d="M10.1166115,0.273214286 L10.1166115,0.623333333 C10.1166115,7.51440476 15.7228662,13.0980952 22.6765032,13.0980952 C29.6424076,13.0980952 35.2425287,7.51440476 35.2425287,0.623333333 L35.2425287,0.273214286 L10.1166115,0.273214286 L10.1166115,0.273214286 Z" id="Shape" fill="#FFFFFF"></path>
                        <path d="M26.559172,0.273214286 L20.6646306,0.273214286 C20.6135159,0.273214286 20.5583121,0.301547619 20.5112866,0.311666667 C21.2391592,0.463452381 21.6419427,2.1027381 21.4885987,3.19357143 C21.2514268,4.86119048 19.8243057,6.01880952 18.1702357,6.04714286 C18.6548025,8.22678571 20.449949,9.97940476 22.8298471,10.3113095 C25.8742357,10.7383333 28.6957643,8.67 29.1210382,5.65654762 C29.4359045,3.43845238 28.3604522,0.273214286 26.559172,0.273214286 L26.559172,0.273214286 Z" id="Shape" fill="#333152"></path>
                    </g>
                </g>
                <path d="M209.682516,247.40869 C211.089191,245.882738 223.031618,232.468929 207.059312,232.468929 C192.62658,232.468929 182.242127,243.996548 179.490115,247.40869 L209.682516,247.40869 L209.682516,247.40869 Z" id="Shape-Copy-34" fill="#C49A7E"></path>
                <path d="M140.788146,247.40869 C138.038178,243.996548 127.653726,232.468929 113.216904,232.468929 C97.2527771,232.468929 109.195204,245.882738 110.593701,247.40869 L140.788146,247.40869 L140.788146,247.40869 Z" id="Shape-Copy-33" fill="#D8B7A0"></path>
                <rect id="Rectangle-path-Copy-3" fill="#53537A" x="90.1294395" y="251.486667" width="61.0983631" height="5.68690476"></rect>
                <path d="M272.935873,158.154643 C272.935873,132.782143 235.376828,62.5559524 231.085242,54.6307143 L219.077389,32.3809524 L201.876287,151.550952 L193.937159,164.495238 C186.272006,161.947262 173.227548,158.391429 160.093127,158.391429 C146.973019,158.391429 134.016478,161.935119 126.384038,164.487143 L118.440822,151.548929 L112.403159,109.775476 C112.411338,109.706667 112.421561,109.613571 112.421561,109.571071 L112.374535,109.565 L101.21314,32.3809524 L88.951758,54.6307143 C84.6540382,62.5559524 46.7944395,132.782143 46.7944395,158.154643 L46.7944395,159.644167 L64.1304841,205.353929 C61.3580255,230.277143 56.0666369,284.414048 60.2232803,294.994524 C62.8137707,301.610357 72.783172,315.271071 81.2150446,326.219881 L69.8573694,431.002619 L85.4943631,441.923095 L93.7585796,365.700357 C94.9464841,373.113571 96.6986943,380.941667 99.2994076,388.012857 C102.885611,397.7575 109.223828,405.134286 117.336745,409.511786 C117.819268,432.840238 139.720873,445.420238 160.354834,445.420238 C180.819096,445.420238 202.538732,432.830119 203.013076,409.493571 C211.109637,405.124167 217.439675,397.747381 221.02179,388.012857 C223.730866,380.658333 225.507611,372.467976 226.689382,364.797738 L235.002669,441.295714 L250.639662,429.986667 L239.310611,325.904167 C247.677057,315.003929 257.458357,301.543571 260.024312,295.000595 C264.180955,284.422143 258.674885,230.277143 255.906516,205.357976 L272.933828,159.642143 L272.933828,158.154643 L272.935873,158.154643 Z M64.0037197,156.804762 C64.9524076,143.643929 78.7840318,112.110952 91.9777452,85.5363095 L95.4944331,109.834167 C94.1531847,118.919048 88.0235159,154.548214 71.5809554,177.006429 L64.0037197,156.804762 L64.0037197,156.804762 Z M160.354834,428.833095 C151.160331,428.833095 138.087248,424.775357 134.834312,414.01881 C135.16758,414.028929 135.494713,414.057262 135.834115,414.057262 C137.61086,414.057262 139.277197,413.895357 140.886287,413.66869 C145.549987,420.09631 152.814401,422.0675 160.174911,422.0675 C167.547688,422.0675 174.826414,420.114524 179.498293,413.676786 C181.097159,413.893333 182.745096,414.057262 184.507529,414.057262 C184.853064,414.057262 185.186331,414.028929 185.531866,414.01881 C182.311643,424.775357 169.41235,428.833095 160.354834,428.833095 L160.354834,428.833095 Z M149.747522,411.153095 C151.984299,410.1675 154.00435,408.99369 155.785185,407.7025 C157.412675,408.176071 158.974739,408.176071 160.172866,408.176071 C161.36486,408.176071 162.910567,408.18619 164.52579,407.712619 C166.310713,408.99369 168.334854,410.1675 170.571631,411.153095 C167.766459,413.229524 164.311108,414.397262 160.181045,414.397262 C156.02849,414.397262 152.556783,413.237619 149.747522,411.153095 L149.747522,411.153095 Z M244.415943,288.995952 C241.989019,295.166548 225.235682,317.213929 214.107,330.902976 L212.250516,333.197976 L212.258694,336.126429 C212.258694,336.391548 212.250516,363.415476 205.288701,382.327976 C200.25493,395.996786 189.075134,397.474167 184.507529,397.474167 C172.94335,397.474167 167.952516,386.980714 167.776682,386.602262 L167.11628,376.772619 L153.057707,376.772619 L152.423885,386.545595 C152.223516,386.990833 147.355357,397.447857 135.848427,397.447857 C131.270599,397.447857 120.094892,395.986667 115.057032,382.317857 C108.117707,363.472143 108.084994,336.391548 108.084994,336.11631 L108.095217,333.187857 L106.238732,330.902976 C95.1161847,317.224048 78.3608025,295.176667 75.9952166,289.155833 C74.1039745,282.643214 77.2260573,240.527738 81.2007325,205.236548 L81.4195032,203.2775 L78.2831083,194.92119 C89.0580764,183.739643 96.6189554,168.350595 101.834694,153.702262 L102.341752,157.268214 L119.454936,185.10369 L126.140732,182.262262 C126.308389,182.191429 143.454287,174.970476 160.10335,174.970476 C176.646096,174.970476 194.074146,182.1975 194.237713,182.268333 L200.913287,185.085476 L218.006025,157.262143 L218.67665,152.615476 C223.837185,167.4075 231.389885,183.071786 242.215968,194.502262 L238.932363,203.271429 L239.151134,205.228452 C243.123764,240.527738 246.245847,282.643214 244.415943,288.995952 L244.415943,288.995952 Z M248.952879,176.52881 C231.187471,151.805952 225.61393,111.615119 225.131408,107.941905 L228.372076,85.5383333 C241.563745,112.110952 255.403548,143.645952 256.352236,156.806786 L248.952879,176.52881 L248.952879,176.52881 Z" id="Shape-Copy-32" fill="#333152"></path>
                <g id="Group-Copy-9" transform="translate(134.942675, 348.095238)">
                    <path d="M44.9461338,0.202380952 L5.64510191,0.202380952 C5.64510191,0.202380952 0.359847134,9.32166667 0.359847134,12.2804762 C0.359847134,21.0678571 24.5493439,35.0584524 24.5493439,35.0584524 C24.5493439,35.0584524 50.100535,20.6509524 50.100535,12.2804762 C50.100535,8.2875 44.9461338,0.202380952 44.9461338,0.202380952 L44.9461338,0.202380952 Z" id="Shape" fill="#333152"></path>
                    <g id="Group" transform="translate(10.222930, 22.261905)">
                        <path d="M27.1480127,4.72761905 C24.9562166,0.880357143 22.1265096,0.178095238 20.8281975,3.145 C19.5339745,6.11392857 20.2741146,11.6389286 22.4659108,15.4780952 C24.657707,19.327381 27.4894586,20.0296429 28.7816369,17.0607143 C30.079949,14.0938095 29.3438981,8.56678571 27.1480127,4.72761905 L27.1480127,4.72761905 Z" id="Shape" fill="#C49A7E"></path>
                        <path d="M2.86650955,4.72761905 C0.670624204,8.56678571 -0.0592929936,14.0938095 1.23288535,17.0607143 C2.52710828,20.0296429 5.35272611,19.327381 7.55474522,15.4780952 C9.7465414,11.6409524 10.4805478,6.11392857 9.18223567,3.145 C7.89005732,0.178095238 5.0623949,0.880357143 2.86650955,4.72761905 L2.86650955,4.72761905 Z" id="Shape" fill="#D8B7A0"></path>
                    </g>
                </g>
            </g>
        </g>
    </g>
</svg>